<svg xmlns="http://www.w3.org/2000/svg" height="0" width="0">

    <symbol viewBox="0 0 22 20" id="iconWindow">
        <path d="M13 21H9C5.22876 21 3.34315 21 2.17157 19.8284C1 18.6569 1 16.7712 1 13V11C1 7.22876 1 5.34315 2.17157 4.17157C3.34315 3 5.22876 3 9 3H13C16.7712 3 18.6569 3 19.8284 4.17157C21 5.34315 21 7.22876 21 11V13C21 16.7712 21 18.6569 19.8284 19.8284C19.1752 20.4816 18.3001 20.7706 17 20.8985" stroke="#191818" stroke-width="1.5" stroke-linecap="round"/>
        <path d="M6 3V1.5" stroke="#191818" stroke-width="1.5" stroke-linecap="round"/>
        <path d="M16 3V1.5" stroke="#191818" stroke-width="1.5" stroke-linecap="round"/>
        <path d="M20.5 8H15.625H9.75M1 8H4.875" stroke="#191818" stroke-width="1.5" stroke-linecap="round"/>
    </symbol>

    <symbol viewBox="0 0 22 22" id="iconWatch">
        <path d="M11 7V11L13.5 13.5" stroke="#191818" stroke-width="1.5" stroke-linecap="round" stroke-linejoin="round"/>
        <path d="M6 2.33782C7.47087 1.48697 9.17856 1 11 1C16.5228 1 21 5.47715 21 11C21 16.5228 16.5228 21 11 21C5.47715 21 1 16.5228 1 11C1 9.17856 1.48697 7.47087 2.33782 6" stroke="#191818" stroke-width="1.5" stroke-linecap="round"/>
    </symbol>

		<symbol viewBox="0 0 52 52" id="baks">
				<circle opacity="0.5" cx="25.6667" cy="25.6667" r="24.6667" stroke="#1C274C" stroke-width="1.5"/>
				<path d="M25.6667 10.8667V40.4667" stroke="#1C274C" stroke-width="1.5" stroke-linecap="round"/>
				<path d="M33.0667 19.5C33.0667 16.0942 29.7536 13.3333 25.6667 13.3333C21.5798 13.3333 18.2667 16.0942 18.2667 19.5C18.2667 22.9057 21.5798 25.6666 25.6667 25.6666C29.7536 25.6666 33.0667 28.4276 33.0667 31.8333C33.0667 35.2391 29.7536 38 25.6667 38C21.5798 38 18.2667 35.2391 18.2667 31.8333" stroke="#1C274C" stroke-width="1.5" stroke-linecap="round"/>
		</symbol>

		<symbol viewBox="0 0 72 72" id="phone">
				<path d="M19.2 26.4C19.2 19.6118 19.2 16.2177 21.3088 14.1088C23.4177 12 26.8118 12 33.6 12H38.4C45.1882 12 48.5824 12 50.6912 14.1088C52.8 16.2177 52.8 19.6118 52.8 26.4V45.6C52.8 52.3882 52.8 55.7823 50.6912 57.8912C48.5824 60 45.1882 60 38.4 60H33.6C26.8118 60 23.4177 60 21.3088 57.8912C19.2 55.7823 19.2 52.3882 19.2 45.6V26.4Z" stroke="#1C274C" stroke-width="1.5"/>
				<path opacity="0.5" d="M42 52.8H30" stroke="#1C274C" stroke-width="1.5" stroke-linecap="round"/>
				<path opacity="0.5" d="M60 21.6L58.1366 25.3267C57.7988 26.0024 57.7988 26.7976 58.1366 27.4733L59.4633 30.1267C59.8012 30.8024 59.8012 31.5976 59.4633 32.2733L58.1366 34.9267C57.7988 35.6024 57.7988 36.3976 58.1366 37.0733L59.4633 39.7267C59.8012 40.4024 59.8012 41.1976 59.4633 41.8733L58.1366 44.5267C57.7988 45.2024 57.7988 45.9976 58.1366 46.6733L60 50.4" stroke="#1C274C" stroke-width="1.5" stroke-linecap="round" stroke-linejoin="round"/>
				<path opacity="0.5" d="M12 21.6L13.8633 25.3267C14.2012 26.0024 14.2012 26.7976 13.8633 27.4733L12.5367 30.1267C12.1988 30.8024 12.1988 31.5976 12.5367 32.2733L13.8633 34.9267C14.2012 35.6024 14.2012 36.3976 13.8633 37.0733L12.5367 39.7267C12.1988 40.4024 12.1988 41.1976 12.5367 41.8733L13.8633 44.5267C14.2012 45.2024 14.2012 45.9976 13.8633 46.6733L12 50.4" stroke="#1C274C" stroke-width="1.5" stroke-linecap="round" stroke-linejoin="round"/>       
		</symbol>

		<symbol viewBox="0 0 78 78" id="wallet">
				<path opacity="0.5" d="M23.4 31.2H33.8" stroke="#1C274C" stroke-width="1.5" stroke-linecap="round" stroke-linejoin="round"/>
				<path d="M61.9667 33.8H55.2C50.5608 33.8 46.8 37.2922 46.8 41.6C46.8 45.9078 50.5608 49.4 55.2 49.4H61.9667C62.1833 49.4 62.2916 49.4 62.3831 49.3944C63.7852 49.3091 64.9021 48.272 64.994 46.97C65 46.8851 65 46.7845 65 46.5833V36.6167C65 36.4155 65 36.3149 64.994 36.23C64.9021 34.928 63.7852 33.8909 62.3831 33.8056C62.2916 33.8 62.1833 33.8 61.9667 33.8Z" stroke="#1C274C" stroke-width="1.5"/>
				<circle opacity="0.5" cx="54.6" cy="41.6" r="2.6" />
				<path d="M62.3091 33.8C62.1069 28.932 61.4552 25.9473 59.3539 23.8461C56.3078 20.8 51.4052 20.8 41.6 20.8H33.8C23.9948 20.8 19.0922 20.8 16.0461 23.8461C13 26.8922 13 31.7948 13 41.6C13 51.4052 13 56.3078 16.0461 59.3539C19.0922 62.4 23.9948 62.4 33.8 62.4H41.6C51.4052 62.4 56.3078 62.4 59.3539 59.3539C61.4552 57.2527 62.1069 54.268 62.3091 49.4" stroke="#1C274C" stroke-width="1.5"/>
				<path opacity="0.5" d="M23.4 20.8L33.1123 14.3601C35.8473 12.5466 39.5527 12.5466 42.2877 14.3601L52 20.8" stroke="#1C274C" stroke-width="1.5" stroke-linecap="round"/>
		</symbol>

		<symbol viewBox="0 0 79 79" id='squares'>
        <path opacity="0.5" d="M26.3333 39.5H23.7C18.7345 39.5 16.2518 39.5 14.7092 41.0426C13.1667 42.5851 13.1667 45.0679 13.1667 50.0333V55.3C13.1667 60.2655 13.1667 62.7482 14.7092 64.2908C16.2518 65.8333 18.7345 65.8333 23.7 65.8333H28.9667C33.9321 65.8333 36.4148 65.8333 37.9574 64.2908C39.5 62.7482 39.5 60.2655 39.5 55.3V52.6667" stroke="#1C274C" stroke-width="1.5"/>
        <path d="M39.5 26.3333H36.8667C31.9012 26.3333 29.4185 26.3333 27.8759 27.8759C26.3333 29.4185 26.3333 31.9012 26.3333 36.8667V42.1333C26.3333 47.0988 26.3333 49.5815 27.8759 51.1241C29.4185 52.6667 31.9012 52.6667 36.8667 52.6667H42.1333C47.0988 52.6667 49.5815 52.6667 51.1241 51.1241C52.6667 49.5815 52.6667 47.0988 52.6667 42.1333V39.5" stroke="#1C274C" stroke-width="1.5"/>
        <path d="M39.5 23.7C39.5 18.7345 39.5 16.2518 41.0426 14.7092C42.5851 13.1667 45.0679 13.1667 50.0333 13.1667H55.3C60.2655 13.1667 62.7482 13.1667 64.2908 14.7092C65.8333 16.2518 65.8333 18.7345 65.8333 23.7V28.9667C65.8333 33.9321 65.8333 36.4148 64.2908 37.9574C62.7482 39.5 60.2655 39.5 55.3 39.5H50.0333C45.0679 39.5 42.5851 39.5 41.0426 37.9574C39.5 36.4148 39.5 33.9321 39.5 28.9667V23.7Z" stroke="#1C274C" stroke-width="1.5"/>
		</symbol>

		<symbol viewBox="0 0 25 20" id="checkIcon">
				<path fill-rule="evenodd" clip-rule="evenodd" d="M25 4.54653L15.8873 17.4234C13.6598 20.571 9.27058 20.8859 6.65362 18.0858L0 10.9665L5.21648 5.62509L10.8725 11.677L19.1361 0L25 4.54653Z" fill="#1C50FE"/>
		</symbol>

</svg>
