<!-- <svg xmlns="http://www.w3.org/2000/svg" height="0" width="0">

    <symbol viewBox="0 0 22 20" id="iconWindow">
        <path d="M13 21H9C5.22876 21 3.34315 21 2.17157 19.8284C1 18.6569 1 16.7712 1 13V11C1 7.22876 1 5.34315 2.17157 4.17157C3.34315 3 5.22876 3 9 3H13C16.7712 3 18.6569 3 19.8284 4.17157C21 5.34315 21 7.22876 21 11V13C21 16.7712 21 18.6569 19.8284 19.8284C19.1752 20.4816 18.3001 20.7706 17 20.8985" stroke="#191818" stroke-width="1.5" stroke-linecap="round"/>
        <path d="M6 3V1.5" stroke="#191818" stroke-width="1.5" stroke-linecap="round"/>
        <path d="M16 3V1.5" stroke="#191818" stroke-width="1.5" stroke-linecap="round"/>
        <path d="M20.5 8H15.625H9.75M1 8H4.875" stroke="#191818" stroke-width="1.5" stroke-linecap="round"/>
    </symbol> -->


    <svg xmlns="http://www.w3.org/2000/svg" width="0" height="0">

    <symbol viewBox="0 0 25 21" id= "arrowsRight" >
        <path d="M15.3688 19.5874L23.5824 11.4366C24.3348 10.6854 24.3348 9.46621 23.5824 8.71758L15.3688 0.561968C14.6101 -0.189173 13.3821 -0.185405 12.6234 0.561968C11.8723 1.31437 11.8723 2.52856 12.6234 3.28096L17.4285 8.04838L2.01437 8.04838C0.900866 8.04838 -1.90735e-05 8.94801 -1.90735e-05 10.0615C-1.90735e-05 11.1738 0.900866 12.0747 2.01437 12.0747L17.4575 12.0747L12.6234 16.8672C11.8723 17.6183 11.8723 18.8338 12.6234 19.5849C13.3809 20.3373 14.6089 20.3386 15.3688 19.5875V19.5874Z" fill="red"/>
    </symbol>



    </svg>